:SAMPLES-PER-SECOND 30
:FULLY-SPECIFIED
:DEGREES
33
root  68.7547 39.4932 -28.063 -130.243 -86.9157 129.967
RightUpLeg  2.89485 -10.59 -5.51649
RightLeg  15.5204 -2.96485 1.36385
RightFoot  -17.1906 -0.121019 -0.0906259
RightToes  2.91037e-010 0 -3.6325e-017
Spine  2.70791 1.4495 13.031
Spine1  13.4608 4.38695 -7.94958
HEad  -1.26991 -2.42488 -4.39271
LeftShoulder1  8.34381 -11.703 -47.8871
LeftArm  -16.4697 21.8489 -35.3428
LeftForeArm  23.0298 -7.11505 -3.33827
LeftHand  -0.244104 0.0205437 5.32207
RightShoulder  6.91267 10.3981 43.3513
RightArm  -8.20387 -6.53834 34.2421
RightForeArm  7.61686 8.87588 6.78332
RightHand  -0.810938 0.824203 -15.2097
LeftUpLeg  -23.4116 3.81408 -2.30079
LeftLeg  40.1496 5.68861 5.48402
LeftFoot  -5.27818 0.31286 -5.30484
LeftToes  -2.38291e-010 7.29328e-011 -2.49822e-011
34
root  68.0668 39.5119 -28.1741 -119.76 -86.2906 119.819
RightUpLeg  4.32898 -10.4762 -6.48979
RightLeg  14.2704 -3.15906 1.51711
RightFoot  -17.5905 -0.126747 -0.146358
RightToes  2.91037e-010 0 -3.6325e-017
Spine  3.17001 1.51028 12.4739
Spine1  12.6287 4.56709 -8.79347
HEad  -1.55552 -2.10996 -4.66992
LeftShoulder1  8.28829 -11.5635 -48.0083
LeftArm  -16.0156 23.0772 -33.5976
LeftForeArm  22.6579 -7.99075 -3.478
LeftHand  -0.244104 0.0205437 5.32207
RightShoulder  6.63896 10.2631 41.9612
RightArm  -7.51216 -4.65406 34.8839
RightForeArm  4.58773 11.2446 6.77678
RightHand  -0.792209 0.85171 -14.8201
LeftUpLeg  -24.4979 5.26449 -4.21955
LeftLeg  34.3452 6.10524 4.83428
LeftFoot  -5.46514 0.285965 -4.9332
LeftToes  -2.38291e-010 7.29328e-011 -2.49822e-011
35
root  67.3113 39.4611 -28.2647 -113.007 -86.0208 113.407
RightUpLeg  5.87134 -10.3835 -7.12329
RightLeg  13.1104 -3.37175 1.78107
RightFoot  -18.1865 -0.111499 0.193556
RightToes  2.91037e-010 0 -3.6325e-017
Spine  3.69979 1.60307 12.1196
Spine1  11.6206 4.74099 -9.51406
HEad  -1.85531 -2.18085 -4.91747
LeftShoulder1  8.303 -11.5658 -48.0872
LeftArm  -15.5871 24.2252 -31.6267
LeftForeArm  22.6018 -9.20337 -3.59278
LeftHand  -0.244104 0.0205437 5.32207
RightShoulder  6.40593 9.90578 41.54
RightArm  -5.43325 -2.46309 34.6603
RightForeArm  2.02939 14.6116 6.33486
RightHand  -0.874724 1.56692 -14.701
LeftUpLeg  -25.1792 6.19238 -5.59
LeftLeg  27.6097 5.06645 3.22746
LeftFoot  -5.2268 0.296819 -4.95643
LeftToes  -2.38291e-010 7.29328e-011 -2.49822e-011
36
root  66.4829 39.3802 -28.3496 -112.924 -85.7653 113.761
RightUpLeg  7.33692 -10.218 -7.49156
RightLeg  11.9817 -3.43546 1.97303
RightFoot  -18.5641 -0.104877 0.331397
RightToes  2.91037e-010 0 -3.6325e-017
Spine  3.50627 1.90148 11.9989
Spine1  11.6309 5.24216 -10.4712
HEad  -2.58816 -2.43855 -4.75275
LeftShoulder1  8.12599 -11.4704 -47.3488
LeftArm  -15.6968 24.7221 -30.5994
LeftForeArm  22.3223 -10.1881 -3.53318
LeftHand  -0.244104 0.0205437 5.32207
RightShoulder  6.28946 9.63985 41.6134
RightArm  -2.76794 0.204823 34.0637
RightForeArm  -1.04799 18.2785 5.61284
RightHand  -0.947641 1.81867 -15.3815
LeftUpLeg  -25.5893 7.04614 -6.56685
LeftLeg  20.5403 2.86248 1.55218
LeftFoot  -3.55444 0.356947 -4.95191
LeftToes  -2.38291e-010 7.29328e-011 -2.49822e-011
37
root  65.5901 39.2705 -28.4417 -118.332 -85.3655 119.586
RightUpLeg  8.79247 -10.0507 -7.81712
RightLeg  11.0178 -3.1682 2.05925
RightFoot  -18.9485 -0.108883 0.289745
RightToes  2.91037e-010 0 -3.6325e-017
Spine  3.26102 2.28578 11.4528
Spine1  11.8081 5.7224 -10.9088
HEad  -3.42193 -2.35366 -4.49469
LeftShoulder1  7.85347 -11.232 -46.4837
LeftArm  -16.1243 24.7954 -30.1073
LeftForeArm  21.4363 -10.629 -3.39986
LeftHand  -0.244104 0.0205437 5.32207
RightShoulder  6.33977 9.7529 41.5874
RightArm  -1.4669 2.74382 33.3917
RightForeArm  -4.13278 21.5196 5.19779
RightHand  -0.934299 1.36977 -16.1306
LeftUpLeg  -25.8211 7.19692 -6.73713
LeftLeg  14.2249 1.79534 0.208559
LeftFoot  -1.34313 0.373951 -4.18504
LeftToes  -2.38291e-010 7.29328e-011 -2.49822e-011
38
root  64.609 39.0933 -28.5162 -123.527 -85.0138 124.985
RightUpLeg  10.4934 -10.0599 -8.31043
RightLeg  10.4379 -2.37878 2.22534
RightFoot  -19.7121 -0.0684534 0.878282
RightToes  2.91037e-010 0 -3.6325e-017
Spine  3.70473 2.61116 10.4276
Spine1  11.132 5.90837 -10.574
HEad  -3.85776 -2.17656 -4.46884
LeftShoulder1  7.74851 -11.1266 -46.1834
LeftArm  -16.1494 24.9109 -29.2188
LeftForeArm  20.4677 -10.7714 -3.36381
LeftHand  -0.244104 0.0205437 5.32207
RightShoulder  6.40125 10.0016 41.1887
RightArm  -2.10522 4.43895 32.9867
RightForeArm  -5.54408 24.2475 5.42587
RightHand  -0.917686 1.14953 -16.3656
LeftUpLeg  -25.8547 4.33398 -4.98963
LeftLeg  10.1977 4.90487 -1.2472
LeftFoot  -0.444243 0.327937 -3.40061
LeftToes  -2.38291e-010 7.29328e-011 -2.49822e-011
39
root  63.4927 38.8615 -28.5326 -128.031 -84.7031 129.514
RightUpLeg  12.3545 -10.3117 -9.08859
RightLeg  10.4117 -0.962624 2.4058
RightFoot  -20.3964 0.0175146 1.96971
RightToes  2.91037e-010 0 -3.6325e-017
Spine  4.22826 2.87115 9.62152
Spine1  10.2791 6.09937 -10.4761
HEad  -4.09151 -2.20161 -4.43509
LeftShoulder1  7.75418 -11.1969 -45.9909
LeftArm  -15.6038 25.2083 -28.017
LeftForeArm  20.2179 -11.3154 -3.46114
LeftHand  -0.244104 0.0205437 5.32207
RightShoulder  6.37896 10.1451 40.5654
RightArm  -3.06179 5.41827 33.1772
RightForeArm  -5.63694 26.2016 5.91645
RightHand  -1.05298 1.94856 -16.7414
LeftUpLeg  -26.0331 3.54045 -4.44199
LeftLeg  9.32382 6.76681 -1.51556
LeftFoot  -0.39944 0.299718 -3.09505
LeftToes  -2.38291e-010 7.29328e-011 -2.49822e-011
40
root  62.2157 38.6256 -28.4883 -133.558 -84.0268 135.042
RightUpLeg  13.995 -10.6897 -10.1939
RightLeg  11.1567 0.941764 2.23042
RightFoot  -20.5107 0.0923931 2.87974
RightToes  2.91037e-010 0 -3.6325e-017
Spine  4.04664 3.16692 9.01278
Spine1  10.0697 6.53326 -10.9749
HEad  -4.45268 -2.10031 -4.05624
LeftShoulder1  7.69593 -11.2238 -45.5478
LeftArm  -14.8278 25.6562 -26.9333
LeftForeArm  20.6244 -12.4634 -3.58285
LeftHand  -0.244104 0.0205437 5.32207
RightShoulder  6.32036 10.1913 40.0121
RightArm  -2.54927 6.09 33.8563
RightForeArm  -6.24424 26.8684 6.10412
RightHand  -1.34324 3.36423 -17.9178
LeftUpLeg  -26.1828 5.11513 -5.45392
LeftLeg  11.0702 7.25429 -0.528959
LeftFoot  0.891365 0.203126 -1.99126
LeftToes  -2.38291e-010 7.29328e-011 -2.49822e-011
